<?xml version="1.0" encoding="UTF-8" standalone="no"?>
<!-- Created with Inkscape (http://www.inkscape.org/) -->

<svg
   xmlns:dc="http://purl.org/dc/elements/1.1/"
   xmlns:cc="http://creativecommons.org/ns#"
   xmlns:rdf="http://www.w3.org/1999/02/22-rdf-syntax-ns#"
   xmlns:svg="http://www.w3.org/2000/svg"
   xmlns="http://www.w3.org/2000/svg"
   xmlns:sodipodi="http://sodipodi.sourceforge.net/DTD/sodipodi-0.dtd"
   xmlns:inkscape="http://www.inkscape.org/namespaces/inkscape"
   version="1.1"
   width="32"
   height="32"
   id="svg3251"
   sodipodi:docname="3052.svg"
   inkscape:version="0.92.5 (2060ec1f9f, 2020-04-08)">
  <sodipodi:namedview
     pagecolor="#ffffff"
     bordercolor="#666666"
     borderopacity="1"
     objecttolerance="10"
     gridtolerance="10"
     guidetolerance="10"
     inkscape:pageopacity="0"
     inkscape:pageshadow="2"
     inkscape:window-width="1920"
     inkscape:window-height="1016"
     id="namedview7"
     showgrid="false"
     inkscape:zoom="7.375"
     inkscape:cx="-1.7627119"
     inkscape:cy="16"
     inkscape:window-x="0"
     inkscape:window-y="0"
     inkscape:window-maximized="1"
     inkscape:current-layer="svg3251" />
  <defs
     id="defs3253" />
  <metadata
     id="metadata3256">
    <rdf:RDF>
      <cc:Work
         rdf:about="">
        <dc:format>image/svg+xml</dc:format>
        <dc:type
           rdf:resource="http://purl.org/dc/dcmitype/StillImage" />
        <dc:title></dc:title>
      </cc:Work>
    </rdf:RDF>
  </metadata>
  <g
     transform="matrix(1.1428571,0,0,1.1428571,-2.2907094,-2.2857136)"
     data-name="Layer 2"
     id="g6">
    <path
       inkscape:connector-curvature="0"
       d="M 22.68,20.06 A 6.45,6.45 0 0 1 21,24.54 5.44,5.44 0 0 1 17.86,26.17 v 1.62 A 2.21,2.21 0 0 1 15.69,30 v 0 A 2.21,2.21 0 0 1 13.48,27.79 V 26 a 6.08,6.08 0 0 1 -4.1,-4.75 1.72,1.72 0 0 1 1.46,-2.13 1.67,1.67 0 0 1 1.81,1.13 4.26,4.26 0 0 0 0.83,1.54 3.16,3.16 0 0 0 2.52,1.07 3.77,3.77 0 0 0 1.89,-0.43 2.72,2.72 0 0 0 0.52,-0.37 2.49,2.49 0 0 0 0.87,-1.65 A 2.35,2.35 0 0 0 19,18.89 2.25,2.25 0 0 0 18.07,18.09 L 17.9,18 c -0.49,-0.21 -1.45,-0.53 -2.88,-1 -0.58,-0.18 -1.09,-0.36 -1.54,-0.54 a 7,7 0 0 1 -1.62,-0.88 5.43,5.43 0 0 1 -1.6,-2 6.29,6.29 0 0 1 -0.59,-2.69 5.92,5.92 0 0 1 0.76,-3 4.82,4.82 0 0 1 2.1,-2 5.38,5.38 0 0 1 0.95,-0.38 V 4.21 A 2.21,2.21 0 0 1 15.69,2 v 0 a 2.21,2.21 0 0 1 2.21,2.21 v 1.24 a 5.54,5.54 0 0 1 2.55,1.37 5.48,5.48 0 0 1 1.45,2.54 1.73,1.73 0 0 1 -1.56,2.14 H 20.22 A 1.65,1.65 0 0 1 18.53,10.39 2.62,2.62 0 0 0 17.89,9.32 h -0.05 a 3.09,3.09 0 0 0 -2.1,-0.65 3.4,3.4 0 0 0 -2.11,0.57 1.07,1.07 0 0 0 -0.16,0.14 1.66,1.66 0 0 0 -0.58,1.28 1.79,1.79 0 0 0 0.58,1.32 l 0.09,0.08 a 9.47,9.47 0 0 0 3.09,1.25 c 0.45,0.13 0.86,0.26 1.24,0.4 a 9.44,9.44 0 0 1 2.44,1.16 5.24,5.24 0 0 1 1.74,2.1 7.41,7.41 0 0 1 0.61,3.09 z"
       id="path4" />
  </g>
</svg>
