<?xml version="1.0" encoding="UTF-8" standalone="no"?>
<!-- Created with Inkscape (http://www.inkscape.org/) -->

<svg
   xmlns:dc="http://purl.org/dc/elements/1.1/"
   xmlns:cc="http://creativecommons.org/ns#"
   xmlns:rdf="http://www.w3.org/1999/02/22-rdf-syntax-ns#"
   xmlns:svg="http://www.w3.org/2000/svg"
   xmlns="http://www.w3.org/2000/svg"
   xmlns:sodipodi="http://sodipodi.sourceforge.net/DTD/sodipodi-0.dtd"
   xmlns:inkscape="http://www.inkscape.org/namespaces/inkscape"
   version="1.1"
   width="32"
   height="32"
   id="svg3251"
   sodipodi:docname="3053.svg"
   inkscape:version="0.92.5 (2060ec1f9f, 2020-04-08)">
  <sodipodi:namedview
     pagecolor="#ffffff"
     bordercolor="#666666"
     borderopacity="1"
     objecttolerance="10"
     gridtolerance="10"
     guidetolerance="10"
     inkscape:pageopacity="0"
     inkscape:pageshadow="2"
     inkscape:window-width="1920"
     inkscape:window-height="1016"
     id="namedview7"
     showgrid="false"
     inkscape:zoom="7.375"
     inkscape:cx="-1.7627119"
     inkscape:cy="16"
     inkscape:window-x="0"
     inkscape:window-y="0"
     inkscape:window-maximized="1"
     inkscape:current-layer="svg3251" />
  <defs
     id="defs3253" />
  <metadata
     id="metadata3256">
    <rdf:RDF>
      <cc:Work
         rdf:about="">
        <dc:format>image/svg+xml</dc:format>
        <dc:type
           rdf:resource="http://purl.org/dc/dcmitype/StillImage" />
        <dc:title></dc:title>
      </cc:Work>
    </rdf:RDF>
  </metadata>
  <g
     transform="matrix(0.51200051,0,0,0.51200051,-0.89601363,-0.8960105)"
     id="g20">
    <path
       inkscape:connector-curvature="0"
       d="m 16.7281,21.7181 c 1.2389,-6.1083 3.4947,-12.0569 6.7673,-17.5834 0.6374,1.4246 1.3256,2.8051 2.0606,4.139 0.1465,0.2667 0.1461,0.6022 3e-4,0.8878 -1.6956,3.318 -3.015,6.7744 -3.9582,10.3076 -0.0812,0.3041 -0.3038,0.5468 -0.5898,0.642 -1.432,0.4746 -2.8601,1.0103 -4.2802,1.607 z"
       id="path2" />
    <path
       inkscape:connector-curvature="0"
       d="m 16.7282,44.2819 c 1.2389,6.1083 3.4947,12.0569 6.7674,17.5834 0.6374,-1.4246 1.3256,-2.8051 2.0606,-4.139 0.1465,-0.2664 0.1461,-0.6023 3e-4,-0.8878 -1.6956,-3.318 -3.015,-6.7744 -3.9583,-10.3076 -0.0812,-0.3042 -0.3038,-0.5468 -0.5898,-0.642 -1.4321,-0.4746 -2.8602,-1.0103 -4.2802,-1.607 z"
       id="path4" />
    <path
       inkscape:connector-curvature="0"
       d="M 49.2718,21.7181 C 48.0329,15.6098 45.7771,9.6612 42.5044,4.1347 c -0.6374,1.4246 -1.3256,2.8051 -2.0606,4.139 -0.1465,0.2667 -0.1461,0.6022 -3e-4,0.8878 1.6956,3.318 3.015,6.7744 3.9583,10.3076 0.0812,0.3041 0.3038,0.5468 0.5898,0.642 1.4321,0.4746 2.8602,1.0103 4.2802,1.607 z"
       id="path6" />
    <g
       id="g12">
      <path
         inkscape:connector-curvature="0"
         d="m 14.6938,44.314 c -0.7504,0.659 -1.4905,1.3382 -2.2181,2.0396 -0.9271,0.9133 -2.4458,0.2534 -2.7552,-1.2892 -1.5829,-7.9617 -1.5829,-16.1672 0,-24.1288 0.3096,-1.5425 1.828,-2.2025 2.7552,-1.2892 0.7277,0.7014 1.4677,1.3807 2.2182,2.0397 l 0.0742,-0.3654 C 15.9967,15.2644 18.1694,9.4871 21.2083,4.1194 18.605,3.9404 15.9626,3.8977 13.2919,4.0012 10.1079,4.0859 6.7588,6.863 5.3955,10.9177 0.5349,25.2242 0.5348,40.7759 5.3956,55.0823 c 1.3633,4.0547 4.7122,6.8318 7.8964,6.9164 2.6707,0.1036 5.3131,0.0609 7.9164,-0.1181 -3.0395,-5.369 -5.2122,-11.1465 -6.4404,-17.2011 z"
         id="path8" />
      <path
         inkscape:connector-curvature="0"
         d="M 60.6044,10.9177 C 59.2411,6.863 55.892,4.0859 52.708,4.0012 50.0373,3.8977 47.395,3.9403 44.7916,4.1194 c 3.0398,5.3688 5.2125,11.1463 6.4402,17.2013 l 0.0742,0.3654 c 0.7505,-0.6589 1.4907,-1.3382 2.2183,-2.0397 0.9272,-0.9133 2.4456,-0.2533 2.7552,1.2892 1.5829,7.9616 1.5829,16.1672 0,24.1288 -0.3094,1.5427 -1.8281,2.2025 -2.7552,1.2892 -0.7277,-0.7015 -1.4678,-1.3809 -2.2183,-2.0397 l -0.0742,0.3657 c -1.2277,6.0546 -3.4005,11.832 -6.4404,17.201 2.6034,0.179 5.2458,0.2217 7.9166,0.1182 3.1841,-0.0847 6.533,-2.8617 7.8964,-6.9165 4.8608,-14.3064 4.8607,-29.8582 0,-44.1646 z"
         id="path10" />
    </g>
    <path
       inkscape:connector-curvature="0"
       d="m 49.2719,44.2819 c -1.2389,6.1083 -3.4947,12.0569 -6.7674,17.5834 -0.6374,-1.4246 -1.3256,-2.8051 -2.0606,-4.139 -0.1465,-0.2664 -0.1461,-0.6023 -3e-4,-0.8878 1.6956,-3.318 3.015,-6.7744 3.9583,-10.3076 0.0812,-0.3042 0.3038,-0.5468 0.5898,-0.642 1.432,-0.4747 2.8601,-1.0104 4.2802,-1.607 z"
       id="path14" />
    <path
       inkscape:connector-curvature="0"
       d="m 38.5629,20.3865 7.4411,5.4569 c 0.2233,0.1637 0.2233,0.4972 0,0.6609 l -7.4412,5.4567 c -0.2707,0.1985 -0.6521,0.0052 -0.6521,-0.3305 v -1.8958 c 0,-0.2263 -0.1835,-0.4098 -0.4098,-0.4098 l -17.2641,-10e-5 c -0.2263,0 -0.4098,-0.1835 -0.4098,-0.4098 v -5.4828 c 0,-0.2263 0.1835,-0.4098 0.4098,-0.4098 l 17.2641,10e-5 c 0.2263,0 0.4098,-0.1835 0.4098,-0.4098 v -1.8959 c 1e-4,-0.3355 0.3815,-0.5288 0.6522,-0.3303 z"
       id="path16" />
    <path
       inkscape:connector-curvature="0"
       d="M 27.4371,34.0391 19.996,39.496 c -0.2233,0.1637 -0.2233,0.4972 0,0.6609 l 7.4412,5.4567 c 0.2707,0.1985 0.6521,0.0052 0.6521,-0.3305 v -1.8958 c 0,-0.2263 0.1835,-0.4098 0.4098,-0.4098 l 17.2641,-10e-5 c 0.2263,0 0.4098,-0.1835 0.4098,-0.4098 v -5.4827 c 0,-0.2263 -0.1835,-0.4098 -0.4098,-0.4098 H 28.499 c -0.2263,0 -0.4098,-0.1835 -0.4098,-0.4098 v -1.8959 c 0,-0.3355 -0.3814,-0.5288 -0.6521,-0.3303 z"
       id="path18" />
  </g>
</svg>
