<?xml version="1.0" encoding="UTF-8" standalone="no"?>

<svg
   xmlns:rdf="http://www.w3.org/1999/02/22-rdf-syntax-ns#"
   xmlns:svg="http://www.w3.org/2000/svg"
   xmlns="http://www.w3.org/2000/svg"
   width="32"
   height="32">
   <path
     style="stroke-width:0.06523117"
     d="m 24.76678,2.33434 h -5.69853 c -0.57485,0 -1.11604,0.2706 -1.46105,0.73052 C 17.26219,2.60493 16.72097,2.33434 16.1459,2.33434 h -5.69853 c -0.5748501,0 -1.1160401,0.2706 -1.4610501,0.73052 -0.34502,-0.45993 -0.88623,-0.73052 -1.46131,-0.73052 H 1.8264801 c -0.48439,0 -0.94892,0.19238 -1.29138,0.53484 C 0.1926301,3.2119 10e-8,3.67642 10e-8,4.16083 v 25.13944 c 0,0.0971 0.0385,0.18983 0.10702,0.25837 0.0685,0.0685 0.16155,0.10702 0.25837,0.10702 H 31.63461 c 0.0968,0 0.18983,-0.0385 0.25837,-0.10702 C 31.96148,29.49014 32,29.39734 32,29.30027 V 9.27495 C 32,8.79056 31.80737,8.32603 31.4649,7.98357 31.12244,7.6411 30.65793,7.44847 30.17352,7.44847 H 26.59344 V 4.16095 c 0,-0.48439 -0.19238,-0.94892 -0.53485,-1.29164 C 25.71613,2.52684 25.25136,2.33446 24.76695,2.33446 Z m -5.69853,0.73052 h 5.69853 c 0.29074,0 0.5695,0.11543 0.77514,0.32107 0.20538,0.20537 0.32081,0.48413 0.32081,0.77488 V 7.44833 H 17.97237 V 4.16081 c 0,-0.29074 0.11568,-0.5695 0.32106,-0.77488 0.20563,-0.20563 0.48439,-0.32107 0.77488,-0.32107 z m -8.62095,0 h 5.69853 c 0.29074,0 0.5695,0.11543 0.77514,0.32107 0.20538,0.20537 0.32081,0.48413 0.32081,0.77488 V 7.44833 H 9.3514199 V 4.16081 c 0,-0.29074 0.11568,-0.5695 0.32106,-0.77488 C 9.8781099,3.1803 10.15687,3.06486 10.44736,3.06486 Z M 31.26909,9.27481 V 28.93483 H 0.7304701 V 4.16068 c 0,-0.29073 0.11542,-0.5695 0.3208,-0.77488 0.20563,-0.20563 0.4844,-0.32106 0.77488,-0.32106 h 5.6985298 c 0.29074,0 0.5695,0.11543 0.77515,0.32106 0.20537,0.20537 0.3208,0.48414 0.3208,0.77488 v 3.65295 c 0,0.0968 0.0385,0.18983 0.10702,0.25837 0.0685,0.0686 0.16155,0.10702 0.25837,0.10702 H 30.17311 c 0.29048,0 0.56925,0.11543 0.77488,0.32081 0.20537,0.20563 0.32081,0.48439 0.32081,0.77488 z" />
</svg>
